<svg width="28" height="28" viewBox="0 0 28 28" fill="none" xmlns="http://www.w3.org/2000/svg">
<mask id="mask0_219_12170" style="mask-type:luminance" maskUnits="userSpaceOnUse" x="0" y="0" width="15" height="21">
<path d="M0 0H14.56V20.0235H0V0Z" fill="white"/>
</mask>
<g mask="url(#mask0_219_12170)">
<path d="M9.67645 10.0199C10.6444 10.0199 11.6145 11.2846 11.9048 11.7694C12.1816 12.2411 12.6039 12.5119 13.0634 12.5119C13.3798 12.5119 13.6806 12.3824 13.9331 12.1376C14.2433 11.838 14.4445 11.4011 14.4992 10.9065C14.554 10.4124 14.4563 9.92025 14.2229 9.51963C14.0297 9.18883 12.2565 6.28184 9.67643 6.28184C9.24046 6.28184 8.80521 6.35233 8.38219 6.4899C9.34874 4.49555 10.5942 4.41513 10.6439 4.41268C11.4441 4.41268 12.0954 3.57391 12.0954 2.54353C12.0954 1.51315 11.444 0.674385 10.6439 0.674385C10.6062 0.674385 7.5487 0.73467 5.71117 4.99827C5.94187 3.82622 6.32698 3.27198 6.3483 3.24253C6.91438 2.51355 6.91438 1.32851 6.3483 0.599514C5.80022 -0.106294 4.84332 -0.105676 4.29591 0.598896C4.19917 0.723485 2.02295 3.60115 2.81398 9.39736L0.484107 9.39766C0.217146 9.39766 0.000366211 9.67621 0.000366211 10.0206V17.497C0.000366211 17.8414 0.217146 18.1199 0.484107 18.1199H3.87075C4.63996 18.1199 5.25404 18.4637 5.96462 18.8613C6.90812 19.3899 7.97761 19.9885 9.67637 19.9885C12.2564 19.9885 14.0296 17.0815 14.224 16.7488C14.7015 15.9283 14.5728 14.7569 13.9362 14.1376C13.6822 13.8909 13.3802 13.7614 13.0635 13.7614C12.6055 13.7614 12.1839 14.0307 11.9069 14.4978C11.8966 14.5145 10.8417 16.2505 9.6764 16.2505C8.34258 16.2505 7.25747 14.8531 7.25747 13.1354C7.25747 11.4178 8.34258 10.0201 9.6764 10.0201L9.67645 10.0199ZM6.28981 13.1352C6.28981 15.5395 7.80899 17.4965 9.67645 17.4965C11.3372 17.4965 12.6228 15.3438 12.6754 15.2535C12.8322 14.9895 13.1462 14.9308 13.3531 15.132C13.5651 15.3382 13.6085 15.7284 13.4503 15.9998C13.3853 16.1118 11.8234 18.7423 9.67645 18.7423C8.17915 18.7423 7.24935 18.2214 6.35028 17.7181C5.57437 17.2838 4.84118 16.8732 3.87082 16.8732H0.967917V10.643H3.40442C3.55158 10.643 3.69034 10.5571 3.78228 10.4093C3.87423 10.2615 3.90904 10.068 3.87664 9.88344C2.89306 4.24133 4.8945 1.58993 4.98073 1.47991C5.16318 1.24372 5.48199 1.24372 5.66494 1.47991C5.85363 1.72291 5.85363 2.11802 5.65389 2.37583C5.49953 2.58884 4.1609 4.57453 4.69988 8.7998C4.73757 9.09505 4.93299 9.31393 5.1649 9.32197C5.39081 9.32383 5.60087 9.1238 5.65008 8.83103C6.7849 2.09325 10.492 1.92412 10.644 1.92048C10.9105 1.92048 11.1278 2.19964 11.1278 2.54343C11.1278 2.88722 10.9105 3.16638 10.6289 3.16638C10.5283 3.17071 8.15184 3.31107 6.96423 7.41112C6.89413 7.65412 6.94718 7.92648 7.09819 8.09776C7.24919 8.26718 7.46694 8.30026 7.64387 8.18C8.27836 7.7478 8.96183 7.52768 9.67653 7.52768C11.8237 7.52768 13.3854 10.158 13.4502 10.2684C13.5279 10.4016 13.5604 10.5661 13.5421 10.7305C13.5236 10.8956 13.4569 11.0409 13.3529 11.1405C13.1462 11.3411 12.8329 11.2839 12.6762 11.0159C12.6219 10.9247 11.331 8.77391 9.67647 8.77391C7.80894 8.77391 6.28982 10.7309 6.28982 13.1351L6.28981 13.1352Z" fill="black"/>
</g>
<mask id="mask1_219_12170" style="mask-type:luminance" maskUnits="userSpaceOnUse" x="13" y="7" width="15" height="21">
<path d="M13.44 7.4375H28V28.0017H13.44V7.4375Z" fill="white"/>
</mask>
<g mask="url(#mask1_219_12170)">
<path d="M27.5163 9.38839H24.1295C23.3603 9.38839 22.7461 9.03532 22.0355 8.62701C21.0922 8.08376 20.0225 7.46875 18.3236 7.46875C15.743 7.46875 13.9698 10.4542 13.7758 10.7959C13.2983 11.6386 13.427 12.8416 14.0637 13.4776C14.685 14.097 15.6249 13.9205 16.0928 13.1083C16.1036 13.0905 17.1583 11.3078 18.3237 11.3078C19.6575 11.3078 20.7427 12.7429 20.7427 14.5069C20.7427 16.271 19.6575 17.7061 18.3237 17.7061C17.3549 17.7061 16.3855 16.4072 16.0952 15.9093C15.8187 15.4251 15.3961 15.147 14.9361 15.147C14.6197 15.147 14.3189 15.28 14.0664 15.5315C13.7562 15.8385 13.555 16.2878 13.5003 16.7958C13.4455 17.3032 13.5432 17.8087 13.7766 18.2201C13.9698 18.5599 15.7431 21.5454 18.3237 21.5454C18.7597 21.5454 19.1949 21.473 19.618 21.3317C18.6514 23.3799 17.4061 23.4625 17.3562 23.465C16.556 23.465 15.9047 24.3264 15.9047 25.3846C15.9047 26.4428 16.556 27.3042 17.3562 27.3042C17.3939 27.3042 20.451 27.2423 22.2891 22.8642C22.0579 24.0679 21.6733 24.6372 21.6519 24.6674C21.0858 25.4161 21.0858 26.6331 21.6519 27.3818C21.9259 27.7444 22.2901 27.9441 22.6783 27.9441C23.0663 27.9441 23.4307 27.7444 23.7044 27.3824C23.8011 27.2545 25.9774 24.2991 25.1864 18.3464L27.5163 18.346C27.7833 18.346 28.0001 18.06 28.0001 17.7063V10.028C28.0001 9.67431 27.7833 9.38824 27.5163 9.38824L27.5163 9.38839ZM27.0325 17.0666H24.5959C24.4488 17.0666 24.31 17.1549 24.218 17.3067C24.1261 17.4584 24.0913 17.6572 24.1237 17.8468C25.1073 23.6412 23.1058 26.3642 23.0195 26.4772C22.8371 26.7198 22.5183 26.7198 22.3358 26.4772C22.1471 26.2277 22.1471 25.8219 22.3468 25.5571C22.5012 25.3384 23.8399 23.299 23.3009 18.9597C23.2632 18.6564 23.0678 18.4316 22.8359 18.4234H22.8234C22.5965 18.4234 22.3991 18.6326 22.3506 18.9276C21.2155 25.8473 17.508 26.0207 17.356 26.0244C17.0895 26.0244 16.8722 25.7377 16.8722 25.3847C16.8722 25.0316 17.0895 24.7449 17.3711 24.7449C17.4717 24.7404 19.8483 24.5963 21.036 20.3855C21.1061 20.136 21.053 19.8562 20.902 19.6803C20.7505 19.5051 20.5332 19.4717 20.3563 19.5959C19.722 20.0397 19.0383 20.2658 18.3235 20.2658C16.1758 20.2658 14.6145 17.5645 14.5497 17.4511C14.472 17.3143 14.4395 17.1454 14.4578 16.9764C14.4763 16.8069 14.543 16.6577 14.647 16.5554C14.8537 16.35 15.167 16.4081 15.3238 16.6834C15.3783 16.7774 16.669 18.9859 18.3236 18.9859C20.1912 18.9859 21.7104 16.9761 21.7104 14.5069C21.7104 12.0377 20.1911 10.0279 18.3236 10.0279C16.6628 10.0279 15.3771 12.2387 15.3245 12.3314C15.1673 12.6032 14.8537 12.6629 14.6468 12.4562C14.4348 12.2444 14.3913 11.8437 14.5496 11.5643C14.6149 11.45 16.1761 8.7483 18.3236 8.7483C19.821 8.7483 20.7508 9.28329 21.6494 9.80016C22.4261 10.2463 23.159 10.6679 24.1295 10.6679H27.0323L27.0325 17.0666Z" fill="black"/>
</g>
</svg>
